<?xml version="1.0" encoding="UTF-8"?>
<!DOCTYPE svg PUBLIC "-//W3C//DTD SVG 1.1//EN" "http://www.w3.org/Graphics/SVG/1.1/DTD/svg11.dtd">
<svg xmlns="http://www.w3.org/2000/svg" version="1.1" width="307px" height="304px" style="shape-rendering:geometricPrecision; text-rendering:geometricPrecision; image-rendering:optimizeQuality; fill-rule:evenodd; clip-rule:evenodd" xmlns:xlink="http://www.w3.org/1999/xlink">
<g><path style="opacity:0.78" fill="#fef3f2" d="M 235.5,39.5 C 234.167,38.5 232.833,37.5 231.5,36.5C 226.758,32.1109 221.424,28.4442 215.5,25.5C 214.304,25.8457 214.304,26.3457 215.5,27C 220.772,29.9411 225.772,33.2744 230.5,37C 229.552,37.4828 228.552,37.6495 227.5,37.5C 211.865,31.6869 196.198,25.8535 180.5,20C 172.81,18.9645 165.143,17.7978 157.5,16.5C 155.667,16.4146 154.334,15.7479 153.5,14.5C 154.822,14.33 155.989,14.6634 157,15.5C 157.167,15.1667 157.333,14.8333 157.5,14.5C 156.333,14.1667 155.167,13.8333 154,13.5C 152.319,13.6083 151.152,14.2749 150.5,15.5C 145.431,15.1504 140.431,14.3171 135.5,13C 136.623,11.9563 137.956,11.2896 139.5,11C 131.507,10.5003 123.507,10.3336 115.5,10.5C 116.609,9.71003 117.942,9.21003 119.5,9C 131.07,8.94648 142.57,8.11315 154,6.5C 159.637,6.92049 165.47,7.42049 171.5,8C 180.509,10.8389 189.509,13.8389 198.5,17C 199.96,18.582 201.627,19.9153 203.5,21C 216.84,22.8275 227.506,28.9942 235.5,39.5 Z"/></g>
<g><path style="opacity:0.997" fill="#fe7d75" d="M 152.5,9.5 C 158.319,8.34745 164.319,8.18079 170.5,9C 171.672,9.41862 172.672,10.0853 173.5,11C 166.501,10.8748 159.501,10.3748 152.5,9.5 Z"/></g>
<g><path style="opacity:1" fill="#fe4b40" d="M 115.5,10.5 C 123.507,10.3336 131.507,10.5003 139.5,11C 137.956,11.2896 136.623,11.9563 135.5,13C 140.431,14.3171 145.431,15.1504 150.5,15.5C 151.391,14.8902 152.391,14.5569 153.5,14.5C 154.334,15.7479 155.667,16.4146 157.5,16.5C 165.143,17.7978 172.81,18.9645 180.5,20C 196.198,25.8535 211.865,31.6869 227.5,37.5C 227.917,38.1239 228.584,38.4573 229.5,38.5C 230.713,38.2528 231.38,37.5862 231.5,36.5C 232.833,37.5 234.167,38.5 235.5,39.5C 236.585,41.5869 238.251,42.9202 240.5,43.5C 245.224,49.2269 250.558,54.2269 256.5,58.5C 256.833,59.5 257.5,60.1667 258.5,60.5C 258.738,62.6449 259.738,64.3115 261.5,65.5C 262.251,64.624 262.751,63.624 263,62.5C 264.026,65.2387 265.526,67.572 267.5,69.5C 268.079,72.3311 269.412,74.6644 271.5,76.5C 272.659,80.1513 274.326,83.4846 276.5,86.5C 276.5,86.8333 276.5,87.1667 276.5,87.5C 275.916,90.285 276.916,91.9517 279.5,92.5C 279.427,94.0269 280.094,95.0269 281.5,95.5C 281.402,97.5529 282.069,99.2196 283.5,100.5C 283.5,100.833 283.5,101.167 283.5,101.5C 283.721,104.067 284.388,106.401 285.5,108.5C 286.265,111.096 286.599,113.763 286.5,116.5C 287.164,121.468 287.664,126.468 288,131.5C 288.698,134.004 289.531,136.337 290.5,138.5C 290.735,145.354 291.402,152.021 292.5,158.5C 292.5,158.833 292.5,159.167 292.5,159.5C 293.748,179.34 290.248,198.34 282,216.5C 281.503,219.146 281.336,221.813 281.5,224.5C 281.5,225.167 281.167,225.5 280.5,225.5C 279.883,225.611 279.383,225.944 279,226.5C 278.151,229.521 277.317,232.521 276.5,235.5C 275.262,237.214 274.595,239.214 274.5,241.5C 274.598,243.553 273.931,245.22 272.5,246.5C 270.5,246.5 269.5,247.5 269.5,249.5C 268.656,252.345 267.99,255.345 267.5,258.5C 263.96,258.753 260.627,259.419 257.5,260.5C 245.538,269.155 233.538,277.821 221.5,286.5C 218.715,285.916 217.048,286.916 216.5,289.5C 214.447,289.402 212.78,290.069 211.5,291.5C 206.019,294.997 200.019,297.33 193.5,298.5C 188.31,298.987 183.31,298.987 178.5,298.5C 179.376,298.631 180.043,298.298 180.5,297.5C 178.667,297.167 176.833,296.833 175,296.5C 147.238,299.103 119.738,297.27 92.5,291C 90.8068,290.153 89.1401,289.32 87.5,288.5C 86.713,286.896 85.3797,286.229 83.5,286.5C 81.1815,286.008 79.1815,285.008 77.5,283.5C 76.2196,282.069 74.5529,281.402 72.5,281.5C 72.0269,280.094 71.0269,279.427 69.5,279.5C 68.3406,277.75 66.674,276.75 64.5,276.5C 64.1667,275.5 63.5,274.833 62.5,274.5C 60.5,273.167 58.8333,271.5 57.5,269.5C 57.1667,268.5 56.5,267.833 55.5,267.5C 55.1667,267.5 54.8333,267.5 54.5,267.5C 50.5976,265.18 46.5976,262.846 42.5,260.5C 41.9879,257.649 40.3213,256.316 37.5,256.5C 36.391,256.443 35.391,256.11 34.5,255.5C 32.8391,250.849 30.1724,246.849 26.5,243.5C 24.8333,242.5 23.5,241.167 22.5,239.5C 20.736,235.634 18.736,231.967 16.5,228.5C 15.9251,225.088 14.5918,222.088 12.5,219.5C 11.2079,214.618 9.5412,209.952 7.5,205.5C 7.74061,203.102 7.07394,201.102 5.5,199.5C 4.6113,194.272 3.27797,189.272 1.5,184.5C 1.5,184.167 1.5,183.833 1.5,183.5C 0.545598,171.668 0.545598,160.002 1.5,148.5C 2.16667,150.833 2.83333,153.167 3.5,155.5C 3.5,156.167 3.5,156.833 3.5,157.5C 3.5,159.5 3.5,161.5 3.5,163.5C 3.33418,168.179 3.50085,172.845 4,177.5C 4.66667,178.833 5.66667,179.833 7,180.5C 7.2771,176.527 7.44376,172.694 7.5,169C 4.73008,166.237 5.23008,164.071 9,162.5C 9.16667,159.333 9.33333,156.167 9.5,153C 9.48484,149.424 8.81818,146.258 7.5,143.5C 7.5,143.167 7.5,142.833 7.5,142.5C 7.57298,140.973 6.90632,139.973 5.5,139.5C 5.02694,138.094 4.02694,137.427 2.5,137.5C 0.994215,134.644 0.327548,131.477 0.5,128C 0.656004,124.8 0.989338,121.633 1.5,118.5C 4.06645,115.355 5.56645,111.688 6,107.5C 7.35613,106.62 8.85613,106.286 10.5,106.5C 10.2108,110.106 10.5442,113.606 11.5,117C 12.7839,117.684 13.9505,117.517 15,116.5C 15.813,114.564 16.313,112.564 16.5,110.5C 18.3969,108.302 19.3969,105.636 19.5,102.5C 22.899,96.0385 26.5657,89.7051 30.5,83.5C 35.6008,77.495 40.6008,71.3283 45.5,65C 43.3264,65.9372 40.9931,66.7706 38.5,67.5C 38.6495,68.552 38.4828,69.552 38,70.5C 35.4816,73.5707 32.9816,76.5707 30.5,79.5C 25.8814,83.4519 21.5481,87.7852 17.5,92.5C 17.1667,92.1667 16.8333,91.8333 16.5,91.5C 17.5045,88.1544 18.5045,84.8211 19.5,81.5C 21.137,79.5248 22.8036,77.5248 24.5,75.5C 29.3189,75.021 32.3189,72.3544 33.5,67.5C 34.2008,65.4123 35.2008,63.4123 36.5,61.5C 40.7881,58.7134 44.6214,55.3801 48,51.5C 49.6945,49.7604 50.8611,47.7604 51.5,45.5C 57.1631,45.343 61.4965,42.843 64.5,38C 71.6577,34.5883 78.6577,30.9216 85.5,27C 91.098,26.3563 96.098,24.3563 100.5,21C 100.167,20.8333 99.8333,20.6667 99.5,20.5C 90.198,24.87 89.5314,24.2033 97.5,18.5C 96.9747,17.8076 96.3081,17.3076 95.5,17C 100.555,14.6544 105.889,13.3211 111.5,13C 113.066,12.3918 114.4,11.5585 115.5,10.5 Z"/></g>
<g><path style="opacity:1" fill="#fe857c" d="M 153.5,14.5 C 152.391,14.5569 151.391,14.8902 150.5,15.5C 151.152,14.2749 152.319,13.6083 154,13.5C 155.167,13.8333 156.333,14.1667 157.5,14.5C 157.333,14.8333 157.167,15.1667 157,15.5C 155.989,14.6634 154.822,14.33 153.5,14.5 Z"/></g>
<g><path style="opacity:0.976" fill="#ffaaa3" d="M 194.5,17.5 C 196.312,17.7713 197.978,18.438 199.5,19.5C 197.069,20.7856 195.403,20.119 194.5,17.5 Z"/></g>
<g><path style="opacity:0.996" fill="#fe7c73" d="M 231.5,36.5 C 231.38,37.5862 230.713,38.2528 229.5,38.5C 228.584,38.4573 227.917,38.1239 227.5,37.5C 228.552,37.6495 229.552,37.4828 230.5,37C 225.772,33.2744 220.772,29.9411 215.5,27C 214.304,26.3457 214.304,25.8457 215.5,25.5C 221.424,28.4442 226.758,32.1109 231.5,36.5 Z"/></g>
<g><path style="opacity:0.675" fill="#fef1f0" d="M 115.5,10.5 C 114.4,11.5585 113.066,12.3918 111.5,13C 105.889,13.3211 100.555,14.6544 95.5,17C 96.3081,17.3076 96.9747,17.8076 97.5,18.5C 89.5314,24.2033 90.198,24.87 99.5,20.5C 99.8333,20.6667 100.167,20.8333 100.5,21C 96.098,24.3563 91.098,26.3563 85.5,27C 78.6577,30.9216 71.6577,34.5883 64.5,38C 61.4965,42.843 57.1631,45.343 51.5,45.5C 50.8333,45.5 50.5,45.1667 50.5,44.5C 52.332,43.8595 52.6653,42.8595 51.5,41.5C 49.2145,42.1329 47.5478,43.4662 46.5,45.5C 46.1667,45.5 45.8333,45.5 45.5,45.5C 45.5106,43.9826 46.1772,42.8159 47.5,42C 52.084,39.4203 56.084,36.0869 59.5,32C 65.49,31.1773 66.1567,32.6773 61.5,36.5C 61.369,37.2389 61.5357,37.9056 62,38.5C 69.9303,33.629 78.097,29.129 86.5,25C 83.7795,24.3985 81.1128,24.5651 78.5,25.5C 77.713,27.1042 76.3797,27.7709 74.5,27.5C 74.3986,23.4247 76.3986,20.9247 80.5,20C 86.7447,19.5425 92.4114,17.5425 97.5,14C 103.588,13.086 109.588,11.9193 115.5,10.5 Z"/></g>
<g><path style="opacity:0.996" fill="#ff796f" d="M 61.5,36.5 C 59.5286,37.8231 57.5286,39.1565 55.5,40.5C 55.1667,40.1667 54.8333,39.8333 54.5,39.5C 57.0698,37.386 59.4032,35.0527 61.5,32.5C 62.2916,33.6998 62.2916,35.0331 61.5,36.5 Z"/></g>
<g><path style="opacity:1" fill="#fe8279" d="M 78.5,25.5 C 77.448,25.6495 76.448,25.4828 75.5,25C 79.1211,21.3552 83.4544,19.6885 88.5,20C 84.9139,21.5419 81.5806,23.3753 78.5,25.5 Z"/></g>
<g><path style="opacity:0.004" fill="#ffeae8" d="M 235.5,39.5 C 237.749,40.0798 239.415,41.4131 240.5,43.5C 238.251,42.9202 236.585,41.5869 235.5,39.5 Z"/></g>
<g><path style="opacity:1" fill="#ff6a60" d="M 50.5,44.5 C 49.2058,45.2899 48.0391,46.2899 47,47.5C 46.5357,46.9056 46.369,46.2389 46.5,45.5C 47.5478,43.4662 49.2145,42.1329 51.5,41.5C 52.6653,42.8595 52.332,43.8595 50.5,44.5 Z"/></g>
<g><path style="opacity:0.012" fill="#ffeae9" d="M 240.5,43.5 C 246.442,47.7731 251.776,52.7731 256.5,58.5C 250.558,54.2269 245.224,49.2269 240.5,43.5 Z"/></g>
<g><path style="opacity:0.996" fill="#fe6a5f" d="M 36.5,61.5 C 35.2008,63.4123 34.2008,65.4123 33.5,67.5C 33.6567,66.1266 33.49,64.7932 33,63.5C 29.4197,67.0026 26.5864,71.0026 24.5,75.5C 23.5655,74.4324 23.2322,73.099 23.5,71.5C 28.6008,65.495 33.6008,59.3283 38.5,53C 41.0758,52.2178 43.0758,50.7178 44.5,48.5C 44.8333,48.8333 45.1667,49.1667 45.5,49.5C 42.4756,53.5185 39.4756,57.5185 36.5,61.5 Z"/></g>
<g><path style="opacity:0.976" fill="#ffdcd9" d="M 50.5,44.5 C 50.5,45.1667 50.8333,45.5 51.5,45.5C 50.8611,47.7604 49.6945,49.7604 48,51.5C 44.6214,55.3801 40.7881,58.7134 36.5,61.5C 39.4756,57.5185 42.4756,53.5185 45.5,49.5C 45.1667,49.1667 44.8333,48.8333 44.5,48.5C 43.0758,50.7178 41.0758,52.2178 38.5,53C 33.6008,59.3283 28.6008,65.495 23.5,71.5C 29.0216,61.3108 36.3549,52.6442 45.5,45.5C 45.8333,45.5 46.1667,45.5 46.5,45.5C 46.369,46.2389 46.5357,46.9056 47,47.5C 48.0391,46.2899 49.2058,45.2899 50.5,44.5 Z"/></g>
<g><path style="opacity:0.004" fill="#fef6f6" d="M 256.5,58.5 C 257.833,58.5 258.5,59.1667 258.5,60.5C 257.5,60.1667 256.833,59.5 256.5,58.5 Z"/></g>
<g><path style="opacity:0.626" fill="#ffe3e1" d="M 258.5,60.5 C 260.5,60.5 262.5,60.5 264.5,60.5C 265.213,63.5939 266.213,66.5939 267.5,69.5C 265.526,67.572 264.026,65.2387 263,62.5C 262.751,63.624 262.251,64.624 261.5,65.5C 259.738,64.3115 258.738,62.6449 258.5,60.5 Z"/></g>
<g><path style="opacity:1" fill="#fffcfb" d="M 137.5,61.5 C 144.881,60.971 152.047,61.6377 159,63.5C 162.722,61.9623 166.555,61.4623 170.5,62C 172.92,68.0362 176.42,68.8696 181,64.5C 184.94,66.15 189.107,66.9833 193.5,67C 201.159,76.001 209.992,83.501 220,89.5C 220.333,93.5 220.667,97.5 221,101.5C 223.634,106.147 226.301,110.813 229,115.5C 230.55,126.783 230.883,138.117 230,149.5C 229.537,159.924 228.704,170.257 227.5,180.5C 225.712,180.215 224.045,180.548 222.5,181.5C 224.987,186.744 225.154,192.078 223,197.5C 219.667,202.833 216.333,208.167 213,213.5C 208.169,219.023 202.336,222.856 195.5,225C 191.783,228.385 187.783,231.385 183.5,234C 171.942,236.931 160.442,240.098 149,243.5C 142.566,243.226 136.399,241.893 130.5,239.5C 127.392,240.934 124.059,241.6 120.5,241.5C 110.463,240.925 100.63,239.259 91,236.5C 79.4125,238.896 75.4125,234.23 79,222.5C 81.2871,219.116 80.9537,216.116 78,213.5C 77.0875,198.279 77.5875,183.112 79.5,168C 79.0374,159.894 78.0374,151.894 76.5,144C 77.8909,138.597 78.7242,133.097 79,127.5C 80.0464,110.488 80.3798,93.4882 80,76.5C 81.3604,73.2648 83.527,70.7648 86.5,69C 96.3726,67.1821 106.373,66.1821 116.5,66C 123.645,64.5013 130.645,63.0013 137.5,61.5 Z"/></g>
<g><path style="opacity:0.99" fill="#ffdbd8" d="M 33.5,67.5 C 32.3189,72.3544 29.3189,75.021 24.5,75.5C 26.5864,71.0026 29.4197,67.0026 33,63.5C 33.49,64.7932 33.6567,66.1266 33.5,67.5 Z"/></g>
<g><path style="opacity:0.218" fill="#feecea" d="M 267.5,69.5 C 269.588,71.3356 270.921,73.6689 271.5,76.5C 269.412,74.6644 268.079,72.3311 267.5,69.5 Z"/></g>
<g><path style="opacity:1" fill="#ffc9c5" d="M 30.5,83.5 C 30.5,82.1667 30.5,80.8333 30.5,79.5C 32.9816,76.5707 35.4816,73.5707 38,70.5C 38.4828,69.552 38.6495,68.552 38.5,67.5C 40.9931,66.7706 43.3264,65.9372 45.5,65C 40.6008,71.3283 35.6008,77.495 30.5,83.5 Z"/></g>
<g><path style="opacity:0.461" fill="#ffe8e6" d="M 23.5,71.5 C 23.2322,73.099 23.5655,74.4324 24.5,75.5C 22.8036,77.5248 21.137,79.5248 19.5,81.5C 20.8557,78.1299 22.189,74.7966 23.5,71.5 Z"/></g>
<g><path style="opacity:0.284" fill="#feeeed" d="M 271.5,76.5 C 274.207,79.2466 275.873,82.5799 276.5,86.5C 274.326,83.4846 272.659,80.1513 271.5,76.5 Z"/></g>
<g><path style="opacity:0.473" fill="#feebea" d="M 276.5,87.5 C 277.737,88.9649 278.737,90.6316 279.5,92.5C 276.916,91.9517 275.916,90.285 276.5,87.5 Z"/></g>
<g><path style="opacity:0.217" fill="#feefee" d="M 30.5,79.5 C 30.5,80.8333 30.5,82.1667 30.5,83.5C 26.5657,89.7051 22.899,96.0385 19.5,102.5C 19.7976,99.7354 20.7976,97.2354 22.5,95C 20.4216,92.8657 18.5883,93.0323 17,95.5C 16.0093,94.5704 15.5093,93.4038 15.5,92C 16.0989,88.771 16.9322,85.6043 18,82.5C 18.3826,81.944 18.8826,81.6107 19.5,81.5C 18.5045,84.8211 17.5045,88.1544 16.5,91.5C 16.8333,91.8333 17.1667,92.1667 17.5,92.5C 21.5481,87.7852 25.8814,83.4519 30.5,79.5 Z"/></g>
<g><path style="opacity:0.51" fill="#fd8f87" d="M 23.5,87.5 C 24.7965,88.8488 24.6298,90.1821 23,91.5C 22.805,90.1807 22.9717,88.8474 23.5,87.5 Z"/></g>
<g><path style="opacity:0.584" fill="#ffdedc" d="M 279.5,92.5 C 280.906,92.9731 281.573,93.9731 281.5,95.5C 280.094,95.0269 279.427,94.0269 279.5,92.5 Z"/></g>
<g><path style="opacity:0.2" fill="#fdf4f3" d="M 281.5,95.5 C 282.931,96.7804 283.598,98.4471 283.5,100.5C 282.069,99.2196 281.402,97.5529 281.5,95.5 Z"/></g>
<g><path style="opacity:0.16" fill="#fef8f8" d="M 283.5,101.5 C 285.163,103.438 285.829,105.772 285.5,108.5C 284.388,106.401 283.721,104.067 283.5,101.5 Z"/></g>
<g><path style="opacity:0.992" fill="#ffc2ba" d="M 19.5,102.5 C 19.3969,105.636 18.3969,108.302 16.5,110.5C 16.7329,107.458 17.7329,104.792 19.5,102.5 Z"/></g>
<g><path style="opacity:1" fill="#ff4b40" d="M 129.5,108.5 C 136.508,108.334 143.508,108.5 150.5,109C 154.985,110.477 158.651,113.143 161.5,117C 164.232,117.413 166.899,118.08 169.5,119C 173.058,121.946 177.058,124.113 181.5,125.5C 187.763,136.132 189.263,147.465 186,159.5C 183.335,169.004 178.501,177.171 171.5,184C 170.167,184.667 168.833,185.333 167.5,186C 153.736,187.646 140.069,189.813 126.5,192.5C 123.209,192.721 120.709,191.387 119,188.5C 119.8,180.028 120.967,171.528 122.5,163C 122.52,146.509 122.353,130.009 122,113.5C 124.17,111.177 126.67,109.51 129.5,108.5 Z"/></g>
<g><path style="opacity:0.812" fill="#feeeec" d="M 16.5,110.5 C 16.313,112.564 15.813,114.564 15,116.5C 13.9505,117.517 12.7839,117.684 11.5,117C 10.5442,113.606 10.2108,110.106 10.5,106.5C 8.85613,106.286 7.35613,106.62 6,107.5C 5.56645,111.688 4.06645,115.355 1.5,118.5C 2.75696,114.559 3.92363,110.559 5,106.5C 7.22763,104.887 9.72763,104.22 12.5,104.5C 11.7166,108.146 11.5499,111.812 12,115.5C 11.734,112.099 13.234,110.433 16.5,110.5 Z"/></g>
<g><path style="opacity:0.545" fill="#ffe1de" d="M 286.5,116.5 C 287.222,116.918 287.722,117.584 288,118.5C 288.726,125.19 289.56,131.856 290.5,138.5C 289.531,136.337 288.698,134.004 288,131.5C 287.664,126.468 287.164,121.468 286.5,116.5 Z"/></g>
<g><path style="opacity:0.671" fill="#ffcdc8" d="M 2.5,137.5 C 4.02694,137.427 5.02694,138.094 5.5,139.5C 3.97306,139.573 2.97306,138.906 2.5,137.5 Z"/></g>
<g><path style="opacity:0.416" fill="#fdfbfb" d="M 5.5,139.5 C 6.90632,139.973 7.57298,140.973 7.5,142.5C 6.09368,142.027 5.42702,141.027 5.5,139.5 Z"/></g>
<g><path style="opacity:0.271" fill="#ffd8d4" d="M -0.5,145.5 C 1.3797,145.229 2.71304,145.896 3.5,147.5C 2.50838,147.328 1.84171,147.662 1.5,148.5C 0.545598,160.002 0.545598,171.668 1.5,183.5C 0.833333,181.833 0.166667,180.167 -0.5,178.5C -0.5,167.5 -0.5,156.5 -0.5,145.5 Z"/></g>
<g><path style="opacity:0.217" fill="#ffe7e5" d="M 290.5,138.5 C 292.266,144.909 292.932,151.576 292.5,158.5C 291.402,152.021 290.735,145.354 290.5,138.5 Z"/></g>
<g><path style="opacity:1" fill="#fdb4af" d="M 1.5,148.5 C 1.84171,147.662 2.50838,147.328 3.5,147.5C 3.5,150.167 3.5,152.833 3.5,155.5C 2.83333,153.167 2.16667,150.833 1.5,148.5 Z"/></g>
<g><path style="opacity:0.291" fill="#ffdfdb" d="M 306.5,161.5 C 306.5,163.167 306.5,164.833 306.5,166.5C 306.167,166.5 305.833,166.5 305.5,166.5C 305.9,164.178 305.234,161.845 303.5,159.5C 302.479,160.901 301.479,162.235 300.5,163.5C 300.549,160.626 300.216,157.792 299.5,155C 299.388,153.338 300.054,152.171 301.5,151.5C 302.924,154.957 304.591,158.29 306.5,161.5 Z"/></g>
<g><path style="opacity:0.994" fill="#fe857d" d="M 3.5,157.5 C 4.43433,158.772 5.10099,160.272 5.5,162C 5.16389,163.03 4.49722,163.53 3.5,163.5C 3.5,161.5 3.5,159.5 3.5,157.5 Z"/></g>
<g><path style="opacity:0.994" fill="#e96158" d="M 305.5,166.5 C 306.054,172.395 305.388,178.062 303.5,183.5C 304.309,185.071 304.643,186.738 304.5,188.5C 303.035,193.354 301.701,198.354 300.5,203.5C 300.204,205.403 299.537,207.07 298.5,208.5C 297.262,210.214 296.595,212.214 296.5,214.5C 295.326,215.514 294.66,216.847 294.5,218.5C 293.5,220.167 292.167,221.5 290.5,222.5C 289.839,221.282 289.172,219.949 288.5,218.5C 287.167,219.167 285.833,219.833 284.5,220.5C 284.167,220 283.833,219.5 283.5,219C 290.758,203.371 295.092,186.871 296.5,169.5C 297.338,169.842 297.672,170.508 297.5,171.5C 297.338,173.527 297.505,175.527 298,177.5C 299.974,173.049 300.807,168.382 300.5,163.5C 301.479,162.235 302.479,160.901 303.5,159.5C 305.234,161.845 305.9,164.178 305.5,166.5 Z"/></g>
<g><path style="opacity:0.869" fill="#fee6e4" d="M 7.5,143.5 C 8.81818,146.258 9.48484,149.424 9.5,153C 9.33333,156.167 9.16667,159.333 9,162.5C 5.23008,164.071 4.73008,166.237 7.5,169C 7.44376,172.694 7.2771,176.527 7,180.5C 5.66667,179.833 4.66667,178.833 4,177.5C 3.50085,172.845 3.33418,168.179 3.5,163.5C 4.49722,163.53 5.16389,163.03 5.5,162C 5.10099,160.272 4.43433,158.772 3.5,157.5C 3.5,156.833 3.5,156.167 3.5,155.5C 3.5,152.833 3.5,150.167 3.5,147.5C 4.05621,152.195 5.22288,156.862 7,161.5C 8.82599,155.593 8.99266,149.593 7.5,143.5 Z"/></g>
<g><path style="opacity:0.332" fill="#fcedec" d="M 300.5,163.5 C 300.807,168.382 299.974,173.049 298,177.5C 297.505,175.527 297.338,173.527 297.5,171.5C 298.117,171.389 298.617,171.056 299,170.5C 299.186,167.964 299.686,165.631 300.5,163.5 Z"/></g>
<g><path style="opacity:0.62" fill="#f5b4b0" d="M 305.5,166.5 C 305.833,166.5 306.167,166.5 306.5,166.5C 306.5,172.833 306.5,179.167 306.5,185.5C 305.833,186.5 305.167,187.5 304.5,188.5C 304.643,186.738 304.309,185.071 303.5,183.5C 305.388,178.062 306.054,172.395 305.5,166.5 Z"/></g>
<g><path style="opacity:0.012" fill="#ffe0dd" d="M 1.5,184.5 C 3.27797,189.272 4.6113,194.272 5.5,199.5C 2.75723,194.974 1.4239,189.974 1.5,184.5 Z"/></g>
<g><path style="opacity:0.118" fill="#fbe0de" d="M 304.5,188.5 C 304.549,193.977 303.216,198.977 300.5,203.5C 301.701,198.354 303.035,193.354 304.5,188.5 Z"/></g>
<g><path style="opacity:0.08" fill="#ffe6e4" d="M 5.5,199.5 C 7.07394,201.102 7.74061,203.102 7.5,205.5C 5.92606,203.898 5.25939,201.898 5.5,199.5 Z"/></g>
<g><path style="opacity:0.72" fill="#fdeceb" d="M 292.5,159.5 C 293.555,163.053 294.888,166.386 296.5,169.5C 295.092,186.871 290.758,203.371 283.5,219C 283.833,219.5 284.167,220 284.5,220.5C 285.833,219.833 287.167,219.167 288.5,218.5C 289.172,219.949 289.839,221.282 290.5,222.5C 288.396,222.707 286.063,222.874 283.5,223C 282.956,223.717 282.289,224.217 281.5,224.5C 281.336,221.813 281.503,219.146 282,216.5C 290.248,198.34 293.748,179.34 292.5,159.5 Z"/></g>
<g><path style="opacity:0.031" fill="#fceeed" d="M 298.5,208.5 C 298.741,210.898 298.074,212.898 296.5,214.5C 296.595,212.214 297.262,210.214 298.5,208.5 Z"/></g>
<g><path style="opacity:0.139" fill="#ffeeec" d="M 7.5,205.5 C 9.5412,209.952 11.2079,214.618 12.5,219.5C 9.66567,215.336 7.99901,210.669 7.5,205.5 Z"/></g>
<g><path style="opacity:0.02" fill="#fdedec" d="M 296.5,214.5 C 296.771,216.38 296.104,217.713 294.5,218.5C 294.66,216.847 295.326,215.514 296.5,214.5 Z"/></g>
<g><path style="opacity:0.133" fill="#ffe4e2" d="M 12.5,219.5 C 14.5918,222.088 15.9251,225.088 16.5,228.5C 14.3926,225.943 13.0592,222.943 12.5,219.5 Z"/></g>
<g><path style="opacity:0.145" fill="#fee2e0" d="M 280.5,225.5 C 280.128,229.297 278.794,232.63 276.5,235.5C 277.317,232.521 278.151,229.521 279,226.5C 279.383,225.944 279.883,225.611 280.5,225.5 Z"/></g>
<g><path style="opacity:0.549" fill="#ffdcd8" d="M 16.5,228.5 C 18.736,231.967 20.736,235.634 22.5,239.5C 19.2197,236.612 17.2197,232.945 16.5,228.5 Z"/></g>
<g><path style="opacity:0.143" fill="#ffdedc" d="M 276.5,235.5 C 276.741,237.898 276.074,239.898 274.5,241.5C 274.595,239.214 275.262,237.214 276.5,235.5 Z"/></g>
<g><path style="opacity:0.094" fill="#fff0ef" d="M 26.5,243.5 C 30.1724,246.849 32.8391,250.849 34.5,255.5C 31.3401,251.852 28.6735,247.852 26.5,243.5 Z"/></g>
<g><path style="opacity:0.169" fill="#ffe5e3" d="M 272.5,246.5 C 271.833,247.833 270.833,248.833 269.5,249.5C 269.5,247.5 270.5,246.5 272.5,246.5 Z"/></g>
<g><path style="opacity:0.165" fill="#feeceb" d="M 269.5,249.5 C 269.664,252.187 269.497,254.854 269,257.5C 268.617,258.056 268.117,258.389 267.5,258.5C 267.99,255.345 268.656,252.345 269.5,249.5 Z"/></g>
<g><path style="opacity:0.134" fill="#ffdfdd" d="M 267.5,258.5 C 267.082,259.222 266.416,259.722 265.5,260C 262.854,260.497 260.187,260.664 257.5,260.5C 260.627,259.419 263.96,258.753 267.5,258.5 Z"/></g>
<g><path style="opacity:0.731" fill="#ffccc7" d="M 37.5,256.5 C 40.3213,256.316 41.9879,257.649 42.5,260.5C 46.5976,262.846 50.5976,265.18 54.5,267.5C 47.2572,266.059 41.5905,262.392 37.5,256.5 Z"/></g>
<g><path style="opacity:0.004" fill="#ffeae9" d="M 55.5,267.5 C 56.5,267.833 57.1667,268.5 57.5,269.5C 56.1667,269.5 55.5,268.833 55.5,267.5 Z"/></g>
<g><path style="opacity:0.008" fill="#ffe8e7" d="M 62.5,274.5 C 63.5,274.833 64.1667,275.5 64.5,276.5C 63.1667,276.5 62.5,275.833 62.5,274.5 Z"/></g>
<g><path style="opacity:0.243" fill="#ffdbd8" d="M 64.5,276.5 C 66.674,276.75 68.3406,277.75 69.5,279.5C 67.326,279.25 65.6594,278.25 64.5,276.5 Z"/></g>
<g><path style="opacity:0.255" fill="#ffdad8" d="M 69.5,279.5 C 71.0269,279.427 72.0269,280.094 72.5,281.5C 70.9731,281.573 69.9731,280.906 69.5,279.5 Z"/></g>
<g><path style="opacity:0.031" fill="#ffeeed" d="M 72.5,281.5 C 74.5529,281.402 76.2196,282.069 77.5,283.5C 75.4471,283.598 73.7804,282.931 72.5,281.5 Z"/></g>
<g><path style="opacity:0.067" fill="#ffedeb" d="M 221.5,286.5 C 219.78,287.308 218.113,288.308 216.5,289.5C 217.048,286.916 218.715,285.916 221.5,286.5 Z"/></g>
<g><path style="opacity:0.435" fill="#ffeeed" d="M 83.5,286.5 C 85.3797,286.229 86.713,286.896 87.5,288.5C 85.847,288.34 84.5137,287.674 83.5,286.5 Z"/></g>
<g><path style="opacity:0.96" fill="#ffeae8" d="M 87.5,288.5 C 89.1401,289.32 90.8068,290.153 92.5,291C 119.738,297.27 147.238,299.103 175,296.5C 176.833,296.833 178.667,297.167 180.5,297.5C 180.043,298.298 179.376,298.631 178.5,298.5C 176.265,298.205 174.265,298.539 172.5,299.5C 154.195,302.057 135.862,302.057 117.5,299.5C 116.5,299.667 115.5,299.833 114.5,300C 116.611,300.845 118.611,301.678 120.5,302.5C 115.611,301.262 110.611,300.429 105.5,300C 104.584,299.722 103.918,299.222 103.5,298.5C 106.799,299.376 110.132,299.543 113.5,299C 107.442,297.536 101.442,295.87 95.5,294C 93.2884,293.211 91.2884,293.378 89.5,294.5C 88.5418,292.698 87.8751,290.698 87.5,288.5 Z"/></g>
<g><path style="opacity:0.224" fill="#ffe3e1" d="M 216.5,289.5 C 215.22,290.931 213.553,291.598 211.5,291.5C 212.78,290.069 214.447,289.402 216.5,289.5 Z"/></g>
<g><path style="opacity:1" fill="#fe5b50" d="M 89.5,294.5 C 91.2884,293.378 93.2884,293.211 95.5,294C 101.442,295.87 107.442,297.536 113.5,299C 110.132,299.543 106.799,299.376 103.5,298.5C 103.167,298.5 102.833,298.5 102.5,298.5C 98.4979,296.39 94.1646,295.057 89.5,294.5 Z"/></g>
<g><path style="opacity:0.131" fill="#fff1f0" d="M 89.5,294.5 C 94.1646,295.057 98.4979,296.39 102.5,298.5C 97.8354,297.943 93.5021,296.61 89.5,294.5 Z"/></g>
<g><path style="opacity:0.973" fill="#ffb1aa" d="M 172.5,299.5 C 174.265,298.539 176.265,298.205 178.5,298.5C 183.31,298.987 188.31,298.987 193.5,298.5C 189.79,300.136 185.79,300.802 181.5,300.5C 180.167,300.5 178.833,300.5 177.5,300.5C 176.081,299.549 174.415,299.216 172.5,299.5 Z"/></g>
<g><path style="opacity:0.995" fill="#ff6254" d="M 172.5,299.5 C 174.415,299.216 176.081,299.549 177.5,300.5C 174.311,300.858 171.311,301.525 168.5,302.5C 168.5,302.833 168.5,303.167 168.5,303.5C 152.5,303.5 136.5,303.5 120.5,303.5C 120.5,303.167 120.5,302.833 120.5,302.5C 118.611,301.678 116.611,300.845 114.5,300C 115.5,299.833 116.5,299.667 117.5,299.5C 135.862,302.057 154.195,302.057 172.5,299.5 Z"/></g>
<g><path style="opacity:0.221" fill="#fdfaf9" d="M 177.5,300.5 C 178.833,300.5 180.167,300.5 181.5,300.5C 177.433,302.054 173.1,302.72 168.5,302.5C 171.311,301.525 174.311,300.858 177.5,300.5 Z"/></g>
</svg>
